<?xml version="1.0" encoding="UTF-8" standalone="no"?>
<!-- Created with Inkscape (http://www.inkscape.org/) -->

<svg
   width="1171.6422"
   height="226.63815"
   viewBox="0 0 309.997 59.964679"
   version="1.1"
   id="svg18063"
   xml:space="preserve"
   xmlns="http://www.w3.org/2000/svg"
   xmlns:svg="http://www.w3.org/2000/svg"
   xmlns:rdf="http://www.w3.org/1999/02/22-rdf-syntax-ns#"
   xmlns:cc="http://creativecommons.org/ns#"
   xmlns:dc="http://purl.org/dc/elements/1.1/"><defs
     id="defs18057" /><metadata
     id="metadata18060"><rdf:RDF><cc:Work
         rdf:about=""><dc:format>image/svg+xml</dc:format><dc:type
           rdf:resource="http://purl.org/dc/dcmitype/StillImage" /></cc:Work></rdf:RDF></metadata><g
     id="layer1"
     transform="translate(78.894905,56.09013)"><path
       id="path1292"
       style="font-size:6.9772px;line-height:1.25;font-family:Superscript;-inkscape-font-specification:Superscript;letter-spacing:0px;word-spacing:0px;fill:#ffffff;stroke-width:0.264583"
       d="m -78.894905,-56.09013 v 8.853206 0.914673 8.853207 8.853206 8.853206 8.853207 h 0.488342 v 5.2250038 h 3.558439 3.488676 3.488676 3.488676 3.488159 3.488676 2.442229 v -6.1396768 -2.71353 h 3.488676 v -6.139676 -5.225005 h -3.000334 v -3.628202 h -0.488342 v -2.713529 h 3.488676 v -6.139677 -5.225004 h -3.000334 v -3.628203 h -0.488342 v -5.225004 h -3.000334 v -3.628202 h -3.488676 -3.488676 -3.488159 -3.488676 -3.488676 z m 27.908891,0 v 9.767879 h 0.488342 v 5.225004 h 3.000334 v 3.628203 h 0.488342 v 5.225004 h 3.000334 v 3.628202 h 0.488342 v 5.225004 h 2.999817 v 3.628202 8.853207 h 0.488859 v 5.2250038 h 3.557922 3.488676 2.442228 v -6.1396768 -8.853206 -2.71353 h 3.488676 v -6.139677 -2.713529 h 3.488676 v -6.139677 -2.71353 h 3.488159 v -6.139677 -5.225004 h -2.999816 v -3.628202 h -3.488676 -3.488676 v 8.853206 h -3.488676 v 8.853207 h -3.488676 -0.488342 v -5.225004 h -3.000334 v -3.628203 h -0.488342 v -5.225004 h -2.999817 v -3.628202 h -3.488676 z m 31.397567,0 v 9.767879 h 0.488342 v 5.225004 h 3.557922 3.488676 2.9305706 v 3.628203 8.853206 8.853206 8.853207 h 0.4883423 v 5.2250038 h 3.5584391 3.4886759 2.44171147 v -6.1396768 -8.853206 -8.853207 -8.853206 -2.71353 H 5.3898728 8.878032 11.32026 v -6.139677 -5.225004 H 8.3199265 v -3.628202 h -3.4886759 -3.4881592 -3.4886759 -3.488676 -3.4886759 -3.4886756 -3.488676 z m 31.397049,0 v 9.767879 8.853207 8.853206 8.853206 8.853207 h 0.488343 v 5.2250038 h 3.558439 3.488676 3.488676 3.488676 3.488676 3.488159 3.488676 2.442228 v -6.1396768 -5.225004 h -3.000334 v -3.628202 H 32.740141 29.251465 25.763306 22.27463 21.786288 v -2.71353 h 4.535124 3.488676 2.441711 v -6.139677 -5.225004 h -3.000334 v -3.628202 H 25.763306 22.27463 21.786288 v -2.71353 h 4.535124 3.488676 3.488159 3.488676 2.442228 v -6.139677 -5.225004 H 36.228817 V -56.09013 H 32.740141 29.251465 25.763306 22.27463 18.785954 15.297278 Z m 31.397567,0 v 8.853206 h -3.488676 v 9.76788 8.853206 8.853206 h 0.488343 v 5.225004 h 3.000333 v 3.628203 h 0.488343 v 5.2250038 h 3.558439 3.488676 3.488676 3.488159 3.488676 3.488676 2.442228 v -6.1396768 -5.225004 h -3.000334 v -3.628202 H 60.649032 57.160356 53.67168 50.183521 49.694662 v -8.853207 -8.853206 -2.71353 h 4.535641 3.488159 3.488676 3.488676 2.442228 v -6.139677 -5.225004 H 64.137708 V -56.09013 H 60.649032 57.160356 53.67168 50.183521 46.694845 Z m 27.908891,0 v 8.853206 h -3.488676 v 9.76788 8.853206 8.853206 h 0.488342 v 5.225004 h 3.000334 v 3.628203 h 0.488342 v 5.2250038 h 3.558439 3.488676 3.48816 3.488675 3.488676 3.488676 2.442229 v -6.1396768 -2.71353 h 3.488159 v -6.139676 -8.853207 -8.853206 -5.225004 h -2.999817 v -3.628203 h -0.488342 v -5.225004 h -3.000334 v -3.628202 h -3.488676 -3.488676 -3.488676 -3.488676 -3.488159 z m 27.908374,0 v 9.767879 8.853207 8.853206 8.853206 8.853207 h 0.488859 v 5.2250038 h 3.557927 3.48867 3.48868 3.48867 3.48868 3.48868 2.44171 v -6.1396768 -2.71353 h 3.48867 v -6.139676 -8.853207 -8.853206 -5.225004 h -3.00033 v -3.628203 h -0.48834 v -5.225004 h -2.99982 v -3.628202 h -3.48868 -3.48867 -3.48868 -3.48867 -3.48868 z m 27.908886,0 v 9.767879 8.853207 8.853206 8.853206 8.853207 h 0.48835 v 5.2250038 h 3.55844 3.48867 3.48868 3.48867 3.48868 3.48868 3.48816 2.44222 v -6.1396768 -5.225004 h -3.00033 v -3.628202 h -3.48868 -3.48816 -3.48867 -3.48868 -0.48834 v -2.71353 h 4.53512 3.48868 2.44171 v -6.139677 -5.225004 h -2.99982 v -3.628202 h -3.48867 -3.48868 -0.48834 v -2.71353 h 4.53512 3.48868 3.48868 3.48816 2.44222 v -6.139677 -5.225004 h -3.00033 v -3.628202 h -3.48868 -3.48816 -3.48867 -3.48868 -3.48867 -3.48868 z m 38.37492,0 v 9.767879 h 0.48835 v 5.225004 h 3.55843 3.48868 2.93005 v 2.71353 h -3.48867 v 8.853206 h -3.48816 v 8.853207 h -3.48868 v 9.767879 h 0.48835 v 5.2250038 h 3.55843 3.48868 3.48816 3.48868 3.48867 3.48868 3.48867 2.44172 v -6.1396768 -5.225004 h -2.99982 v -3.628202 h -3.48868 -3.48867 -0.48835 v -2.71353 h 3.48868 v -6.139677 -2.713529 h 3.48868 v -6.139677 -2.71353 h 3.48816 v -6.139677 -5.225004 h -2.99982 v -3.628202 h -3.48868 -3.48867 -3.48868 -3.48868 -3.48867 -3.48816 z m 27.90889,0 v 9.767879 8.853207 8.853206 8.853206 8.853207 h 0.48835 v 5.2250038 h 3.55844 3.48815 2.44223 v -6.1396768 -8.853206 -8.853207 -8.853206 -8.853207 -5.225004 h -3.00033 v -3.628202 h -3.48868 z m 10.46552,0 v 9.767879 8.853207 8.853206 8.853206 8.853207 h 0.48834 v 5.2250038 h 3.55844 3.48867 2.44223 v -6.1396768 -8.853206 -2.71353 h 4.53512 3.48868 3.48816 2.44223 v -6.139677 -2.713529 h 3.48867 v -6.139677 -5.225004 h -3.00033 v -3.628203 h -0.48834 v -5.225004 h -3.00034 v -3.628202 h -3.48867 -3.48816 v 9.767879 h 3.48816 v 2.71353 h -2.93006 -3.48867 -3.55844 v 5.225004 H 210.659 v -7.938534 h 3.48867 3.48816 v -9.767879 h -3.48816 -3.48867 -3.48868 z m -261.645016,4.465361 h 2.163175 v 4.387845 h -0.837675 v -3.550687 h -1.3255 z m 13.954704,0 h 2.162658 v 4.387845 h -0.837158 v -3.550687 h -1.3255 z m 20.931539,0 h 2.162658 v 4.387845 5.302519 h -1.604553 -1.884123 v 3.550688 5.302518 h -1.604553 -1.884123 v 3.550688 5.302519 h -1.604553 -1.883606 v 3.550688 8.853206 5.3025186 h -1.60507 -3.488676 -2.720764 v -4.3878456 h 0.837158 v 3.5506874 h 1.883606 3.488676 0.767395 v -4.4653604 -8.853206 -4.387846 h 2.721281 0.767395 v -4.465361 -4.387846 h 2.721281 0.767395 v -4.46536 -4.387846 h 2.721281 0.767395 v -4.465361 -3.550687 h -1.3255 z m 31.3970495,0 h 2.1631755 v 4.387845 5.302519 H 8.878032 5.3898728 1.9011969 0.01707417 v 3.550688 8.853206 8.853207 8.853206 5.3025186 H -1.5874791 -5.076155 -7.7974359 v -4.3878456 h 0.8376749 v 3.5506874 h 1.883606 3.4886759 0.76739506 v -4.4653604 -8.853206 -8.853207 -8.853206 -4.387846 H 1.9011969 5.3898728 8.878032 9.6459438 v -4.465361 -3.550687 H 8.3199265 Z m 27.9088905,0 h 2.163176 v 4.387845 5.302519 h -1.60507 -3.488676 -3.488159 -3.488676 -3.488676 -1.884123 v 3.550688 h -0.837158 v -4.387846 h 2.721281 3.488676 3.488676 3.488159 3.488676 0.767395 v -4.465361 -3.550687 h -1.325501 z m 27.908891,0 h 2.163176 v 4.387845 5.302519 h -1.60507 -3.488676 -3.488676 -3.488159 -3.488676 -1.884123 v 3.550688 8.853206 8.853207 h -0.837158 v -8.853207 -8.853206 -4.387846 h 2.721281 3.488676 3.488159 3.488676 3.488676 0.767395 v -4.465361 -3.550687 h -1.325501 z m 27.908891,0 h 2.162659 v 4.387845 h -0.837159 v -3.550687 h -1.3255 z m 27.908891,0 h 2.16266 v 4.387845 h -0.83716 v -3.550687 h -1.3255 z m 31.39705,0 h 2.16318 v 4.387845 5.302519 h -1.60507 -3.48816 -3.48868 -3.48868 -3.48867 -1.88361 v 3.550688 h -0.83767 v -4.387846 h 2.72128 3.48867 3.48868 3.48868 3.48816 0.76791 v -4.465361 -3.550687 h -1.32602 z m 38.37492,0 h 2.16266 v 4.387845 5.302519 h -1.60456 -1.88412 v 3.550688 5.302518 h -1.60455 -1.88412 v 3.550688 5.302519 h -1.60456 -1.8836 v 3.550688 h -0.83768 v -4.387846 h 2.72128 0.7674 v -4.465361 -4.387846 h 2.72128 0.76739 v -4.46536 -4.387846 h 2.72128 0.7674 v -4.465361 -3.550687 h -1.3255 z m 10.46551,0 h 2.16317 v 4.387845 8.853207 8.853206 8.853207 8.853206 5.3025186 h -1.60507 -3.48815 -2.72129 v -4.3878456 h 0.83716 v 3.5506874 h 1.88413 3.48815 0.76792 v -4.4653604 -8.853206 -8.853207 -8.853206 -8.853207 -3.550687 h -1.32602 z m 24.42021,0 h 2.16318 v 4.387845 h -0.83716 v -3.550687 h -1.32602 z m -282.576546,1.674833 h 0.488342 v 2.713012 h -0.488342 z m 13.954704,0 h 0.488342 v 2.713012 h -0.488342 z m 20.931539,0 h 0.488342 v 3.627685 2.71353 h -3.488676 v 6.139677 2.713529 h -3.488676 v 6.139677 2.713529 h -3.488676 v 6.139677 8.853207 2.7135292 h -4.46536 v -2.7135292 h 0.488342 3.488676 v -9.767879 -7.938534 h 3.488676 v -8.853206 h 3.488676 v -8.853207 h 3.488676 z m 31.3970495,0 h 0.4883423 v 3.627685 2.71353 H 5.3898728 1.9011969 -1.6572422 v 6.139677 8.853206 8.853206 8.853207 2.7135292 h -4.4653606 v -2.7135292 h 0.4883423 3.488676 v -9.767879 -8.853207 -8.853206 -7.938534 h 3.4886759 3.4881592 3.4886759 z m 27.9088905,0 h 0.488343 v 3.627685 2.71353 h -3.418913 -3.488159 -3.488676 -3.488676 -3.558439 v 5.225004 h -0.488343 v -7.938534 h 3.488676 3.488676 3.488159 3.488676 3.488676 z m 27.908891,0 h 0.488342 v 3.627685 2.71353 h -3.418912 -3.488676 -3.488159 -3.488676 -3.55844 v 6.139677 8.853206 7.938534 h -0.488342 v -8.853207 -8.853206 -7.938534 h 3.488676 3.488159 3.488676 3.488676 3.488676 z m 27.908891,0 h 0.488342 v 2.713012 h -0.488342 z m 27.908891,0 h 0.48834 v 2.713012 h -0.48834 z m 31.39705,0 h 0.48834 v 3.627685 2.71353 h -3.41839 -3.48868 -3.48868 -3.48867 -3.55844 v 5.225004 h -0.48834 v -7.938534 h 3.48867 3.48868 3.48867 3.48816 3.48868 z m 38.37492,0 h 0.48834 v 3.627685 2.71353 h -3.48868 v 6.139677 2.713529 h -3.48867 v 6.139677 2.713529 h -3.48868 v 5.225005 h -0.48834 v -7.938534 h 3.48868 v -8.853206 h 3.48867 v -8.853207 h 3.48868 z m 10.46551,0 h 0.48834 v 3.627685 8.853207 8.853206 8.853206 8.853207 2.7135292 h -4.46536 v -2.7135292 h 0.48834 3.48868 v -9.767879 -8.853207 -8.853206 -8.853207 z m 24.42021,0 h 0.48835 v 2.713012 h -0.48835 z m -296.530733,3.627685 h 3.488676 3.488159 3.488676 v 2.71353 h -2.930054 -3.488676 -3.558439 v 5.225004 h -0.488342 z m 22.257039,0 h 0.837158 v 3.550688 h 1.326018 v 0.837158 h -2.163176 z m 1.674833,0 h 0.488343 v 2.71353 h -0.488343 z m 29.722734,0 h 0.837158 v 3.550688 h 1.883606 3.488676 2.9305706 v 0.837158 h -2.9305706 -3.488676 -2.720764 z m 1.674316,0 h 0.488343 3.488676 3.4886756 v 2.71353 h -2.9305706 -4.535124 z m 91.192367,0 h 3.488159 3.488676 3.488676 3.488676 v 2.71353 h -2.930571 -3.488675 -3.48816 -3.558439 v 6.139677 8.853206 7.938534 h -0.488342 v -8.853207 -8.853206 z m 31.397054,0 h 3.48867 3.48868 3.48867 v 2.71353 h -2.93057 -3.48867 -3.55844 v 6.139677 8.853206 7.938534 h -0.48834 v -8.853207 -8.853206 z m 60.63195,0 h 0.83716 v 3.550688 h 1.88412 3.48868 2.93005 v 0.837158 h -2.93005 -3.48868 -2.72128 z m 1.67432,0 h 0.48886 3.48816 3.48867 v 2.71353 h -2.93005 -4.53564 z m -238.899113,3.550688 h 2.721281 3.488676 2.930054 v 0.837158 h -2.930054 -3.488676 -1.884122 v 3.550688 h -0.837159 z m 16.117363,0 h 2.163175 v 4.387846 5.302518 h -1.60507 -1.883606 v 3.550688 h -0.837675 v -4.387846 h 2.721281 0.767395 v -4.46536 -3.550688 h -1.3255 z m 13.954187,0 h 2.163175 v 4.387846 h -0.837158 v -3.550688 h -1.326017 z m 116.449739,0 h 2.721281 3.48816 3.488675 2.930571 v 0.837158 h -2.930571 -3.488675 -3.48816 -1.884122 v 3.550688 8.853206 8.853207 h -0.837159 v -8.853207 -8.853206 z m 19.606039,0 h 2.162659 v 4.387846 8.853206 8.853207 5.302518 H 96.09338 94.209258 v 3.550688 5.3025186 h -1.604554 -3.488676 -3.488676 -3.488675 -3.48816 -3.488676 -2.721281 v -4.3878456 h 0.837159 v 3.5506874 h 1.884122 3.488676 3.48816 3.488675 3.488676 3.488676 0.767395 v -4.4653604 -4.387846 h 2.721281 0.767395 v -4.46536 -8.853207 -8.853206 -3.550688 h -1.3255 z m 11.791525,0 h 2.72077 3.48867 2.93057 v 0.837158 h -2.93057 -3.48867 -1.88361 v 3.550688 8.853206 8.853207 h -0.83716 v -8.853207 -8.853206 z m 16.11685,0 h 2.16317 v 4.387846 8.853206 8.853207 5.302518 h -1.60455 -1.88412 v 3.550688 5.3025186 h -1.60455 -3.48868 -3.48868 -3.48867 -3.48868 -3.48867 -2.72077 v -4.3878456 h 0.83716 v 3.5506874 h 1.88361 3.48867 3.48868 3.48867 3.48868 3.48868 0.76739 v -4.4653604 -4.387846 h 2.72128 0.7674 v -4.46536 -8.853207 -8.853206 -3.550688 h -1.32602 z m 88.54085,0 h 2.72128 3.48867 2.93006 v 0.837158 h -2.93006 -3.48867 -1.88412 v 3.550688 h -0.83716 z m 16.11736,0 h 2.16318 v 4.387846 5.302518 h -1.60507 -1.88361 v 3.550688 5.302519 h -1.60507 -3.48816 -3.48868 -3.48867 -1.88412 v 3.550688 8.853206 5.3025186 h -1.60456 -3.48867 -2.72128 v -4.3878456 h 0.83767 v 3.5506874 h 1.88361 3.48867 0.7674 v -4.4653604 -8.853206 -4.387846 h 2.72128 3.48867 3.48868 3.48816 0.76791 v -4.465361 -4.387846 h 2.72077 0.76739 v -4.46536 -3.550688 h -1.3255 z m -297.019596,1.674316 h 4.53564 2.930054 v 2.71353 h -3.488676 -3.488159 -0.488859 z m 14.443046,0 h 0.488342 v 3.628203 2.713529 h -3.488676 v 5.225004 h -0.488342 v -7.938533 h 3.488676 z m 13.954187,0 h 0.488859 v 2.71353 h -0.488859 z m 118.124056,0 h 4.535124 3.488675 2.930571 v 3.628203 8.853206 7.938534 h -3.488676 -3.488676 -3.488676 -0.488342 v -8.853207 -8.853206 z m 17.931722,0 h 0.488342 v 3.628203 8.853206 8.853206 2.71353 h -3.488676 v 6.139677 2.7135292 h -3.418913 -3.488676 -3.488675 -3.48816 -4.53564 v -2.7135292 h 0.488859 3.488159 3.488676 3.488676 3.488676 3.488676 v -8.853207 h 3.488676 v -9.767879 -8.853206 z m 13.465845,0 h 4.53512 2.93057 v 3.628203 8.853206 7.938534 h -3.48867 -3.48868 -0.48834 v -8.853207 -8.853206 z m 14.44253,0 h 0.48886 v 3.628203 8.853206 8.853206 2.71353 h -3.48868 v 6.139677 2.7135292 h -3.41891 -3.48868 -3.48867 -3.48868 -4.53512 v -2.7135292 h 0.48834 3.48868 3.48867 3.48868 3.48867 3.48868 v -8.853207 h 3.48816 v -9.767879 -8.853206 z m 90.21568,0 h 4.53512 2.93006 v 2.71353 h -3.48816 v 9.767879 h 3.48816 3.48867 v -8.853206 h 3.48868 v -3.628203 h 0.48834 v 3.628203 2.713529 h -3.48867 v 6.139677 2.713529 h -3.4184 -3.48868 -3.48867 -3.55844 v 6.139677 8.853207 2.7135292 h -4.46536 v -2.7135292 h 0.48834 3.48868 v -9.767879 -7.938534 h 3.48867 3.48816 v -9.767879 h -3.48816 -0.48834 z m -259.831168,3.628203 h 0.837158 v 3.550687 h 1.326018 v 0.837158 h -2.163176 z m 1.674317,0 h 0.488859 v 2.713529 h -0.488859 z m 73.748986,3.550687 h 2.163176 v 4.387846 5.302519 h -1.604553 -3.488676 -3.488676 -1.884123 v 3.550688 h -0.837158 v -4.387846 h 2.721281 3.488676 3.488676 0.767395 v -4.465361 -3.550688 h -1.326018 z m 115.124235,0 h 2.16266 v 4.387846 5.302519 h -1.60455 -3.48868 -3.48867 -1.88361 v 3.550688 h -0.83767 v -4.387846 h 2.72128 3.48867 3.48868 0.7674 v -4.465361 -3.550688 H 144.3757 Z M 29.251465,-32.24404 h 0.488859 v 3.628202 2.713529 h -3.418912 -3.488676 -3.558439 v 5.225005 h -0.488343 v -7.938534 h 3.488676 3.488676 3.488159 z m 115.124235,0 h 0.48835 v 3.628202 2.713529 h -3.41892 -3.48867 -3.55844 v 5.225005 h -0.48834 v -7.938534 h 3.48867 3.48868 3.48867 z m -216.293253,3.628202 h 3.488676 3.488159 3.488676 v 2.713529 h -2.930054 -3.488676 -3.558439 v 5.225005 h -0.488342 z m 29.234391,0 h 0.837158 v 3.550688 h 1.325501 v 0.837158 h -2.162659 z m 1.674317,0 h 0.488342 v 2.713529 h -0.488342 z m -29.583208,3.550688 h 2.721281 3.488676 2.930054 v 0.837158 h -2.930054 -3.488676 -1.884122 v 3.550688 h -0.837159 z m 16.117363,0 h 2.163175 v 4.387846 5.302518 h -1.60507 -1.883606 v 3.550688 5.3025186 h -1.60507 -3.488676 -3.488159 -3.488676 -3.488676 -3.488676 -2.721281 v -4.3878456 h 0.837675 v 3.5506874 h 1.883606 3.488676 3.488676 3.488676 3.488159 3.488676 0.767395 v -4.4653604 -4.387846 h 2.721281 0.767395 v -4.46536 -3.550688 h -1.3255 z m -14.443046,1.674316 h 4.53564 2.930054 v 2.71353 h -3.488676 -3.488159 -0.488859 z m 14.443046,0 h 0.488342 v 3.628202 2.71353 h -3.488676 v 6.139677 2.7135292 h -3.418913 -3.488159 -3.488676 -3.488676 -4.535123 v -2.7135292 h 0.488342 3.488676 3.488676 3.488159 3.488676 3.488676 v -8.853207 h 3.488676 z m 209.31591,2.71353 v 9.767879 h 0.48834 v 5.2250038 h 3.55844 3.48867 2.44223 v -6.1396768 -5.225004 h -3.00033 v -3.628202 h -3.48868 z m -113.798226,0.914672 h 0.837675 v 3.550688 h 1.3255 v 0.837158 h -2.163175 z m 1.674833,0 h 0.488342 v 2.71353 h -0.488342 z m 26.234058,0 h 0.837158 v 3.550688 h 1.326017 v 0.837158 h -2.163175 z m 1.674833,0 h 0.488342 v 2.71353 h -0.488342 z m -34.397901,3.550688 h 2.163176 v 4.387846 5.3025186 h -1.60507 -3.488676 -3.488159 -3.488676 -3.488676 -3.488676 -3.488676 -2.721281 v -4.3878456 h 0.837675 v 3.5506874 h 1.883606 3.488676 3.488676 3.488676 3.488676 3.488159 3.488676 0.767395 v -4.4653604 -3.550688 h -1.325501 z m 27.908891,0 h 2.163176 v 4.387846 5.3025186 h -1.60507 -3.488676 -3.488676 -3.488159 -3.488676 -3.488676 -2.721281 v -4.3878456 h 0.837158 v 3.5506874 h 1.884123 3.488676 3.488676 3.488159 3.488676 3.488676 0.767395 v -4.4653604 -3.550688 h -1.325501 z m 87.214832,0 h 2.16318 v 4.387846 5.3025186 h -1.60507 -3.48816 -3.48868 -3.48868 -3.48867 -3.48868 -3.48867 -2.72077 v -4.3878456 h 0.83716 v 3.5506874 h 1.88361 3.48867 3.48868 3.48867 3.48868 3.48868 3.48816 0.76791 v -4.4653604 -3.550688 h -1.32602 z m 10.46603,0 h 2.16266 v 4.387846 5.3025186 h -1.60456 -3.48867 -2.72128 v -4.3878456 h 0.83767 v 3.5506874 h 1.88361 3.48867 0.7674 v -4.4653604 -3.550688 h -1.3255 z m 27.90889,0 h 2.16266 v 4.387846 5.3025186 h -1.60456 -3.48867 -3.48868 -3.48867 -3.48868 -3.48816 -3.48868 -2.72128 v -4.3878456 h 0.83716 v 3.5506874 h 1.88412 3.48868 3.48816 3.48868 3.48867 3.48868 3.48867 0.7674 v -4.4653604 -3.550688 h -1.3255 z m -153.498643,1.674316 h 0.488343 v 3.628203 2.7135292 H 33.298247 29.810088 26.321412 22.832736 19.34406 14.808936 v -2.7135292 h 0.488342 3.488676 3.488676 3.488676 3.488159 3.488676 3.488676 z m 27.908891,0 h 0.488342 v 3.628203 2.7135292 h -3.418912 -3.488676 -3.488159 -3.488676 -4.535124 v -2.7135292 h 0.488342 3.488676 3.488159 3.488676 3.488676 3.488676 z m 87.214832,0 h 0.48834 v 3.628203 2.7135292 h -3.41839 -3.48868 -3.48868 -3.48867 -3.48868 -4.53512 v -2.7135292 h 0.48834 3.48868 3.48867 3.48868 3.48867 3.48816 3.48868 z m 10.46603,0 h 0.48834 v 3.628203 2.7135292 h -4.46536 v -2.7135292 h 0.48834 3.48868 z m 27.90889,0 h 0.48834 v 3.628203 2.7135292 h -3.41891 -3.48868 -3.48867 -3.48868 -3.48816 -4.53564 v -2.7135292 h 0.48886 3.48816 3.48867 3.48868 3.48868 3.48867 3.48868 z" /></g></svg>
